<svg width="399" height="283" viewBox="0 0 399 283" fill="none" xmlns="http://www.w3.org/2000/svg">
<rect x="8" width="383" height="275" fill="#CC9595"/>
<g filter="url(#filter0_d)">
<path d="M8 72L199 198.5L391 74V0.5H8V72Z" fill="#EEADAD"/>
</g>
<path d="M60.0808 22.315C26.6397 45.4016 26.6397 82.8325 60.0808 105.919L79.0065 118.985L78.4111 119.396L199.512 203L338.919 106.758C372.36 83.6714 372.36 46.2405 338.919 23.1539C305.478 0.0672076 251.259 0.0672181 217.818 23.1539L200.108 35.3806L181.182 22.315C147.741 -0.771661 93.522 -0.771661 60.0808 22.315Z" fill="#ED8080"/>
<g filter="url(#filter1_d)">
<path d="M8 275L199.5 193L391 275.5L8 275Z" fill="#EEADAD"/>
</g>
<g filter="url(#filter2_i)">
<path d="M164.327 178.247C155.891 185.243 155.891 196.586 164.327 203.582L169.102 207.541L168.952 207.665L199.503 233L234.673 203.836C243.109 196.84 243.109 185.497 234.673 178.501C226.236 171.505 212.558 171.505 204.121 178.501L199.653 182.206L194.879 178.247C186.442 171.251 172.764 171.251 164.327 178.247Z" fill="#9B2C2C"/>
</g>
<defs>
<filter id="filter0_d" x="3" y="0.5" width="393" height="208" filterUnits="userSpaceOnUse" color-interpolation-filters="sRGB">
<feFlood flood-opacity="0" result="BackgroundImageFix"/>
<feColorMatrix in="SourceAlpha" type="matrix" values="0 0 0 0 0 0 0 0 0 0 0 0 0 0 0 0 0 0 127 0"/>
<feOffset dy="5"/>
<feGaussianBlur stdDeviation="2.5"/>
<feColorMatrix type="matrix" values="0 0 0 0 0 0 0 0 0 0 0 0 0 0 0 0 0 0 0.25 0"/>
<feBlend mode="normal" in2="BackgroundImageFix" result="effect1_dropShadow"/>
<feBlend mode="normal" in="SourceGraphic" in2="effect1_dropShadow" result="shape"/>
</filter>
<filter id="filter1_d" x="0" y="184" width="399" height="98.5" filterUnits="userSpaceOnUse" color-interpolation-filters="sRGB">
<feFlood flood-opacity="0" result="BackgroundImageFix"/>
<feColorMatrix in="SourceAlpha" type="matrix" values="0 0 0 0 0 0 0 0 0 0 0 0 0 0 0 0 0 0 127 0"/>
<feOffset dy="-1"/>
<feGaussianBlur stdDeviation="4"/>
<feColorMatrix type="matrix" values="0 0 0 0 0 0 0 0 0 0 0 0 0 0 0 0 0 0 0.25 0"/>
<feBlend mode="normal" in2="BackgroundImageFix" result="effect1_dropShadow"/>
<feBlend mode="normal" in="SourceGraphic" in2="effect1_dropShadow" result="shape"/>
</filter>
<filter id="filter2_i" x="158" y="171" width="83" height="62" filterUnits="userSpaceOnUse" color-interpolation-filters="sRGB">
<feFlood flood-opacity="0" result="BackgroundImageFix"/>
<feBlend mode="normal" in="SourceGraphic" in2="BackgroundImageFix" result="shape"/>
<feColorMatrix in="SourceAlpha" type="matrix" values="0 0 0 0 0 0 0 0 0 0 0 0 0 0 0 0 0 0 127 0" result="hardAlpha"/>
<feOffset dy="-2"/>
<feGaussianBlur stdDeviation="2"/>
<feComposite in2="hardAlpha" operator="arithmetic" k2="-1" k3="1"/>
<feColorMatrix type="matrix" values="0 0 0 0 0 0 0 0 0 0 0 0 0 0 0 0 0 0 0.25 0"/>
<feBlend mode="normal" in2="shape" result="effect1_innerShadow"/>
</filter>
</defs>
</svg>
